<svg xmlns="http://www.w3.org/2000/svg" viewBox="0 0 16.871 16.871" width="512" height="512"><g fill="#002025"><path d="M6.847 5.772h-.025c-.127.511-.254 1.16-.395 1.657l-.51 1.821h1.898L7.28 7.429c-.152-.51-.305-1.146-.433-1.657z"/><path d="M15.837 0H1.033C.462 0 0 .462 0 1.033v14.805c0 .57.462 1.033 1.033 1.033h14.805c.57 0 1.033-.463 1.033-1.033V1.033c0-.57-.463-1.033-1.034-1.033zM8.758 12.905l-.663-2.203H5.638l-.612 2.203H3.014l2.624-8.583h2.546l2.663 8.583H8.758zm5.035 0h-1.937V6.678h1.937v6.227zm-.98-6.991c-.611 0-1.019-.434-1.007-.969-.012-.561.396-.979 1.021-.979.623 0 1.018.419 1.03.979 0 .535-.407.969-1.044.969z"/></g></svg>