<svg xmlns="http://www.w3.org/2000/svg" viewBox="0 0 312.553 312.553" width="512" height="512"><path d="M302.553 0H10C4.477 0 0 4.478 0 10v292.553c0 5.522 4.477 10 10 10h292.553c5.523 0 10-4.478 10-10V10c0-5.522-4.477-10-10-10zM120.934 192.814c-9.358 8.189-21.313 12.699-33.66 12.699-27.747 0-50.321-22.112-50.321-49.293 0-27.119 22.574-49.182 50.321-49.182a50.882 50.882 0 0 1 33.548 12.592 9.323 9.323 0 0 1 .869 13.156 9.32 9.32 0 0 1-13.157.869 32.24 32.24 0 0 0-21.26-7.971c-17.465 0-31.674 13.698-31.674 30.535 0 16.898 14.209 30.646 31.674 30.646 7.83 0 15.423-2.872 21.381-8.086 3.874-3.391 9.765-2.998 13.156.877 3.39 3.877 2.998 9.767-.877 13.158zm46.464 12.156c-12.343 0-24.936-5.205-32.864-13.586-3.539-3.74-3.375-9.641.365-13.18 3.741-3.538 9.642-3.376 13.18.365 4.388 4.638 12.152 7.754 19.319 7.754 7.308 0 15.842-2.114 15.842-8.072.047-5.691-2.819-7.697-17.036-12.003-12.52-3.791-31.439-9.521-31.439-31.366 0-16.328 14.14-27.299 35.185-27.299 9.358 0 19.563 2.839 26.631 7.408a9.324 9.324 0 0 1 2.767 12.892c-2.795 4.325-8.568 5.564-12.892 2.769-4.026-2.604-10.814-4.422-16.507-4.422-7.629 0-16.537 2.267-16.537 8.652 0 6.958 4.099 9.25 18.196 13.52 12.126 3.673 30.449 9.222 30.278 29.927.002 15.903-13.858 26.641-34.488 26.641zm73.711 0c-12.344 0-24.936-5.205-32.864-13.586a9.322 9.322 0 0 1 .365-13.18c3.741-3.538 9.642-3.376 13.18.365 4.388 4.638 12.152 7.754 19.319 7.754 7.308 0 15.842-2.114 15.842-8.072.047-5.691-2.818-7.697-17.035-12.003-12.52-3.791-31.439-9.521-31.439-31.366 0-16.328 14.14-27.299 35.185-27.299 9.358 0 19.563 2.839 26.631 7.408a9.324 9.324 0 0 1 2.768 12.892c-2.795 4.325-8.567 5.564-12.892 2.769-4.026-2.604-10.814-4.422-16.507-4.422-7.629 0-16.538 2.267-16.538 8.652 0 6.958 4.099 9.25 18.197 13.52 12.125 3.673 30.449 9.222 30.278 29.927 0 15.903-13.86 26.641-34.49 26.641z" fill="#002025"/></svg>