<svg xmlns="http://www.w3.org/2000/svg" viewBox="0 0 15.332 15.332" width="512" height="512"><path d="M14.395 0H.938A.937.937 0 0 0 0 .938v13.455c0 .52.42.939.938.939h13.456c.519 0 .938-.42.938-.939V.938A.937.937 0 0 0 14.395 0zM4.463 9.427h-.794V7.955H2.357v1.472h-.799V5.906h.799V7.26h1.312V5.906h.794v3.521zM7.6 6.574h-.961v2.853h-.8V6.574h-.946v-.668H7.6v.668zm3.434 2.853l-.052-1.347a39.021 39.021 0 0 1-.031-1.447h-.015c-.11.449-.257.951-.393 1.363l-.429 1.375h-.621l-.377-1.364a15.959 15.959 0 0 1-.318-1.374h-.011c-.021.475-.036 1.019-.063 1.457l-.063 1.337h-.737l.225-3.521h1.062l.345 1.176c.109.407.22.846.298 1.259h.016c.1-.408.22-.873.334-1.265l.377-1.17h1.04l.193 3.521h-.78zm3.592 0h-2.2V5.906h.8V8.76h1.4v.667z" fill="#002025"/></svg>