<svg xmlns="http://www.w3.org/2000/svg" viewBox="0 0 17.469 17.469" width="512" height="512"><g fill="#002025"><path d="M5.925 4.982c-.442 0-.742.043-.898.087V7.91c.186.042.413.056.727.056 1.157 0 1.871-.585 1.871-1.571-.001-.884-.615-1.413-1.7-1.413z"/><path d="M16.4.002H1.07C.479.002 0 .48 0 1.069v15.329c0 .59.479 1.069 1.07 1.069H16.4a1.07 1.07 0 0 0 1.069-1.069V1.07c0-.59-.479-1.068-1.069-1.068zM8.894 8.624c-.741.7-1.842 1.014-3.125 1.014a5.4 5.4 0 0 1-.743-.043v3.442H2.869V3.541c.671-.113 1.613-.199 2.942-.199 1.341 0 2.299.256 2.94.771.617.486 1.03 1.286 1.03 2.228s-.315 1.739-.887 2.283zm3.251 4.555c-.916 0-1.729-.198-2.258-.485l.385-1.556c.4.241 1.229.527 1.873.527.655 0 .927-.228.927-.586 0-.356-.214-.527-1.027-.799-1.442-.485-2-1.271-1.986-2.099 0-1.298 1.114-2.286 2.842-2.286.814 0 1.542.187 1.97.4l-.385 1.5c-.314-.172-.913-.399-1.514-.399-.527 0-.826.214-.826.571 0 .328.269.499 1.126.8 1.328.456 1.886 1.128 1.899 2.154 0 1.301-1.03 2.258-3.026 2.258z"/></g></svg>