<svg id="Capa_1" xmlns="http://www.w3.org/2000/svg" viewBox="0 0 512 512"><style>.st0{fill:#d3d3d3}</style><path class="st0" d="M256 0C114.6 0 0 114.6 0 256s114.6 256 256 256 256-114.6 256-256S397.4 0 256 0zm0 472c-119.3 0-216-96.7-216-216S136.7 40 256 40s216 96.7 216 216-96.7 216-216 216z"/><path class="st0" d="M278.1 135.9c8.7-4.9 12.5-8.1 12.5-8.1h-83.3c-16.7 0-63 19-63 63.2 0 44.3 48.1 53.8 65.5 53-9.8 11.9-1.4 22.8 3.8 28.4 5.2 5.6 4.2 7.4-2.1 7.4-6.3 0-83.6.8-83.6 56.2s102.8 59.4 136.6 29.5 26.5-71 .3-89.6c-26.1-18.6-35.9-27.4-19.2-42.1 16.7-14.8 30-26.7 30-54.1 0-27.4-22.7-41.4-22.7-41.4s16.4 2.6 25.2-2.4zm-12.9 197.4c0 23.9-20.3 35.5-54.7 35.5-34.5 0-52.9-17.2-52.9-42.8 0-25.7 25.1-38.3 72.1-38.3 12.7 9.8 35.5 21.7 35.5 45.6zm-49.9-100.1c-41.5 0-60.3-96.9-11.5-96.9 38-1.4 66.6 96.9 11.5 96.9zM352.8 160v-31.5h-16.3V160h-31.9v16.4h31.9V208h16.3v-31.6h31.3V160h-31.3z"/></svg>