<svg xmlns="http://www.w3.org/2000/svg" width="512" height="512" viewBox="0 0 512 512"><path d="M256 0C114.609 0 0 114.609 0 256c0 141.391 114.609 256 256 256 141.391 0 256-114.609 256-256C512 114.609 397.391 0 256 0zm0 472c-119.297 0-216-96.703-216-216S136.703 40 256 40s216 96.703 216 216-96.703 216-216 216z" fill="#002025"/><path d="M278.062 135.945c8.719-4.891 12.53-8.062 12.53-8.062h-83.281c-16.688 0-63.031 18.953-63.031 63.203 0 44.258 48.062 53.758 65.5 53.039-9.781 11.938-1.406 22.844 3.844 28.422 5.219 5.625 4.156 7.375-2.094 7.375-6.281 0-83.625.844-83.625 56.219s102.781 59.375 136.562 29.531c33.781-29.844 26.47-71 .345-89.594-26.125-18.609-35.875-27.391-19.156-42.141s29.969-26.688 29.969-54.086c0-27.406-22.656-41.422-22.656-41.422s16.375 2.438 25.093-2.484zm-12.906 197.383c0 23.891-20.281 35.469-54.719 35.469-34.469 0-52.938-17.203-52.938-42.844 0-25.656 25.094-38.297 72.125-38.297 12.751 9.828 35.532 21.766 35.532 45.672zm-49.812-100.109c-41.469 0-60.281-96.898-11.5-96.898 37.968-1.423 66.531 96.898 11.5 96.898zm137.406-73.18v-31.516h-16.281v31.516h-31.875v16.359h31.875v31.57h16.281v-31.57h31.344v-16.359H352.75z" fill="#002025"/></svg>