<svg id="Capa_1" xmlns="http://www.w3.org/2000/svg" viewBox="0 0 512 512"><style>.st0{fill:#d3d3d3}</style><path class="st0" d="M256 0C114.6 0 0 114.6 0 256s114.6 256 256 256 256-114.6 256-256S397.4 0 256 0zm0 472c-119.3 0-216-96.7-216-216S136.7 40 256 40s216 96.7 216 216-96.7 216-216 216z"/><path class="st0" d="M384 170.9c-4.3 2.6-17.2 7.7-29.3 9 7.7-4.5 19.2-19.2 22-30.9-7.4 5.1-24.5 12.6-33 12.6-9.6-10.8-23.2-17.6-38.2-17.6-29.2 0-52.8 25.5-52.8 56.9 0 4.4.5 8.6 1.4 12.7-39.6-1.1-85.8-22.4-111.9-59-16 29.9-2.2 63 16 75.1-6.2.5-17.7-.8-23.1-6.4-.4 19.8 8.5 46 40.7 55.6-6.2 3.6-17.2 2.6-22 1.8 1.7 16.8 23.4 38.6 47.2 38.6-8.5 10.5-37.4 29.7-73.1 23.6 24.3 15.9 52.6 25.2 82.6 25.2 85.2 0 151.4-74.4 147.8-166.1v-.3-.7-.9c7.8-5.8 18.2-15.9 25.7-29.2z"/></svg>