<?xml version="1.0" encoding="utf-8"?>
<!-- Generator: Adobe Illustrator 19.2.0, SVG Export Plug-In . SVG Version: 6.00 Build 0)  -->
<svg version="1.1" id="Capa_1" xmlns="http://www.w3.org/2000/svg" xmlns:xlink="http://www.w3.org/1999/xlink" x="0px" y="0px"
	 viewBox="0 0 512 512" style="enable-background:new 0 0 512 512;" xml:space="preserve">
<style type="text/css">
	.st0{fill:#D3D3D3;}
</style>
<g>
	<path class="st0" d="M256,0C114.6,0,0,114.6,0,256s114.6,256,256,256s256-114.6,256-256S397.4,0,256,0z M256,472
		c-119.3,0-216-96.7-216-216S136.7,40,256,40s216,96.7,216,216S375.3,472,256,472z"/>
	<g>
		<g>
			<path class="st0" d="M278.1,135.9c8.7-4.9,12.5-8.1,12.5-8.1h-83.3c-16.7,0-63,19-63,63.2c0,44.3,48.1,53.8,65.5,53
				c-9.8,11.9-1.4,22.8,3.8,28.4c5.2,5.6,4.2,7.4-2.1,7.4c-6.3,0-83.6,0.8-83.6,56.2s102.8,59.4,136.6,29.5s26.5-71,0.3-89.6
				c-26.1-18.6-35.9-27.4-19.2-42.1c16.7-14.8,30-26.7,30-54.1c0-27.4-22.7-41.4-22.7-41.4S269.3,140.9,278.1,135.9z M265.2,333.3
				c0,23.9-20.3,35.5-54.7,35.5c-34.5,0-52.9-17.2-52.9-42.8c0-25.7,25.1-38.3,72.1-38.3C242.4,297.5,265.2,309.4,265.2,333.3z
				 M215.3,233.2c-41.5,0-60.3-96.9-11.5-96.9C241.8,134.9,270.4,233.2,215.3,233.2z M352.8,160v-31.5h-16.3V160h-31.9v16.4h31.9
				V208h16.3v-31.6h31.3V160L352.8,160L352.8,160z"/>
		</g>
	</g>
</g>
</svg>
